<?xml version="1.0" encoding="utf-8"?>
<!-- Generator: Adobe Illustrator 26.0.2, SVG Export Plug-In . SVG Version: 6.00 Build 0)  -->
<svg version="1.1" baseProfile="tiny" id="Layer_1" xmlns="http://www.w3.org/2000/svg" xmlns:xlink="http://www.w3.org/1999/xlink"
	 x="0px" y="0px" viewBox="0 0 1079 485" overflow="visible" xml:space="preserve">
<g display="none">
</g>
<g>
	<g>
		<g>
			<g>
				<path d="M482.88,330.92l-22-70.32h-10.89v70.32H414.2V154.37c23.48,1.72,73.45-6.77,89.73,13.34
					c19.09,18.75,19.48,71.9-9.94,84.41l28.04,78.8H482.88z M480.67,209.73c0.33-21.05-13.73-23.07-30.68-21.94v44.64
					C466.27,233.77,481.18,230.28,480.67,209.73z"/>
			</g>
			<g>
				<path d="M637.83,204c0.3,20.52-8.41,40.34-27.22,48.13c-9.75,4.87-28.81,2.86-39.45,3.24v75.56h-21.58V154.37
					C591.24,154.62,636.66,145.79,637.83,204z M616.25,204.25c0.21-31.9-20.76-31.6-45.09-30.67v63.09
					C597.07,237.83,615.93,236.99,616.25,204.25z"/>
				<path d="M772.37,242.4c-0.07,24.14-3.86,47.96-15.47,67.08c-13.02,23.73-44.06,33.41-67.03,18.95
					c-45.29-27.54-46.04-144.28-0.36-171.68C747.05,128.74,774.28,193.03,772.37,242.4z M749.59,242.4
					c1.35-28.82-11.77-91.16-50.84-66.46c-27.02,22.8-27.05,110.06,0,132.91C737.84,333.54,750.92,271.23,749.59,242.4z"/>
				<path d="M879.09,284.04c1.59,52.26-58.23,68.08-88.98,30.67l12.71-16.21c10.27,14.56,34.91,22.9,48.21,8.48
					c12.67-14.14,7.54-40.77-9.95-50.24c-23.33-12.95-46.3-25.47-44.97-56.48c-2.06-48.09,53.7-67.37,83.22-33.16l-12.95,15.96
					c-22.61-28.4-59.24-4.95-47.36,28.3C834.01,241.26,878.33,234.69,879.09,284.04z"/>
				<path d="M941.68,173.58v157.35H920.1V173.58h-32.38v-19.2h86.34v19.2H941.68z"/>
			</g>
			<g>
				<path fill="#666666" d="M999.94,155.74c-0.04,0.58,0.07,1.45-0.58,1.58c0,0-4.84,0-4.84,0v15.42c-0.2,0.76-1.26,0.54-1.97,0.62
					c-0.71-0.08-1.78,0.14-1.97-0.62c0,0,0-15.42,0-15.42c-0.34-0.16-5.33,0.38-5.28-0.36c-0.14-0.74-0.48-2.52,0.43-2.82
					c0,0,13.63,0,13.63,0C1000.03,154.26,999.89,155.15,999.94,155.74z"/>
				<path fill="#666666" d="M1024.77,172.74c-0.24,0.92-3.47,0.92-3.72,0c0,0,0-15.57,0-15.57h-0.03l-5.6,15.55
					c-0.31,0.78-1.26,0.58-2.02,0.64c-0.74-0.05-1.68,0.08-2-0.64c0,0-5.41-15.55-5.41-15.55h-0.03v15.57
					c-0.4,1.02-2.47,0.58-3.34,0.46c-0.75-0.24-0.6-18.5,0.02-18.66c1.24-0.73,5.57-0.8,6.28,0.76c0.09,0.06,4.43,11.99,4.6,12.44
					h0.06c0.21-0.5,4.65-12.31,4.76-12.42c0.89-1.82,3.96-1.13,5.58-1.08C1025.69,153.84,1024.4,171.98,1024.77,172.74z"/>
			</g>
		</g>
		<g>
			<g>
				<path fill="#C1272E" d="M295.2,329.61h-53.27l-54.5-77.14h-11.11v47.46c0,9.14,0.56,14.9,1.69,17.28
					c1.27,2.52,3.36,4.53,5.93,5.69c2.83,1.41,8.11,2.12,15.84,2.12v4.6h-86.54v-4.6c7.81,0,13.11-0.73,15.91-2.19
					c2.48-1.19,4.51-3.15,5.79-5.59c1.12-2.33,1.69-8.07,1.69-17.21v-99.77c0-9.14-0.56-14.9-1.69-17.28
					c-1.28-2.46-3.35-4.41-5.88-5.54c-1.46-0.66-3-1.11-4.58-1.35H76.25c-36.76,64.93-13.92,147.38,51.01,184.14
					c56.58,32.03,127.95,19.22,169.86-30.49L295.2,329.61z"/>
				<path fill="#C1272E" d="M189.67,169.58h-13.35v74.1h7.11c11.55,0,20.2-1.06,25.94-3.18c5.73-2.11,10.53-6.17,13.55-11.47
					c3.53-6.67,5.19-14.16,4.82-21.69c0-12.86-3.01-22.38-9.04-28.56C212.66,172.58,202.99,169.52,189.67,169.58z"/>
				<path fill="#C1272E" d="M148.69,160.57h43.1c20.46,0,35.43,1.41,44.91,4.24c9.19,2.63,17.31,8.11,23.19,15.64
					c5.99,7.61,9.17,17.07,8.99,26.76c0.28,11.76-4.63,23.05-13.43,30.85c-6.96,5.8-15.24,9.82-24.1,11.69L272.01,307
					c2.41,3.21,4.29,5.83,6.03,8h29.94c40.12-62.91,21.65-146.44-41.26-186.56c-59.27-37.8-137.63-23.84-180.19,32.12H148.69z"/>
				<path fill="#FFFFFF" d="M278.01,314.84c-1.74-2.15-3.71-4.82-6.03-8l-40.64-57.08c8.86-1.85,17.13-5.83,24.1-11.59
					c8.84-7.82,13.77-19.13,13.47-30.93c0.18-9.69-3-19.14-8.99-26.76c-5.88-7.54-14-13.01-23.19-15.64
					c-9.51-2.84-24.5-4.27-44.96-4.27H86.52c-3.76,4.92-7.19,10.09-10.24,15.48h48.21c1.58,0.24,3.12,0.69,4.58,1.35
					c2.53,1.16,4.59,3.14,5.86,5.62c1.12,2.36,1.69,8.12,1.69,17.28v99.65c0,9.14-0.56,14.88-1.69,17.21
					c-1.28,2.48-3.34,4.47-5.86,5.66c-2.78,1.46-8.08,2.19-15.91,2.19v4.6h86.61v-4.6c-7.73,0-13.01-0.71-15.84-2.12
					c-2.56-1.15-4.65-3.14-5.93-5.64c-1.12-2.38-1.69-8.13-1.69-17.26v-47.46h11.09l54.5,77.14h55.25c3.93-4.65,7.53-9.57,10.8-14.7
					L278.01,314.84z M222.91,229.02c-3.02,5.3-7.82,9.37-13.55,11.47c-5.74,2.12-14.38,3.18-25.94,3.18h-7.11v-74.1h13.35
					c13.39,0,23.09,3.08,29.12,9.23c6.03,6.15,9.04,15.68,9.04,28.56C228.15,214.9,226.46,222.38,222.91,229.02z"/>
			</g>
		</g>
		<g>
			<rect x="368.62" y="50.85" width="6.15" height="383.29"/>
		</g>
	</g>
</g>
</svg>
